<svg width="1920" height="945" viewBox="0 0 1920 945" fill="none" xmlns="http://www.w3.org/2000/svg">
<path d="M2099.45 274.817C2074.05 261.579 2042.69 254.744 2009.59 250.502C1879.41 233.824 1768.75 251.977 1661.98 289.829C1569.09 322.761 1414.63 392.356 1467.01 468.091C1497.24 511.796 1571.6 553.638 1653.88 565.943C1703.73 573.398 1773.68 577.699 1817.64 561.842C1859.35 546.794 1838.26 518.467 1811.88 500.641C1763.01 467.608 1685.53 448.017 1616.34 433.245C1515.33 411.681 1408.89 398.258 1303.17 391.719C1232 387.317 1124.55 386.544 1055.23 395.883C971.936 405.31 946.028 430.984 945.255 458.995C948.461 554.826 1094.31 625.315 1053.05 719.094C1034.32 761.671 981.767 800.06 927.547 830.115C784.458 909.431 562.058 946.512 353.755 942.885C221.518 940.583 86.4226 921.672 -18.2238 869.941C-139.93 809.777 -202.238 723.998 -211.005 638.246C-221.533 535.264 -115.369 456.76 23.5927 401.222C74.8939 380.718 132.096 364.378 180.534 341.787C203.05 331.286 238.716 312.759 243.546 294.78C249.219 273.66 193.705 254.84 170.166 244.966C122.298 224.887 71.5623 207.441 22.2721 188.574C-52.2261 160.057 -92.4068 125.592 -74.9352 75.8451C-64.8152 47.0304 -35.2508 23.5148 -2.88199 1.71709" stroke="#FAAE5C" stroke-opacity="0.6" stroke-width="3" stroke-linecap="round"/>
</svg>
